<svg width="80" height="92" viewBox="0 0 80 92" fill="none" xmlns="http://www.w3.org/2000/svg">
<g clip-path="url(#clip0)">
<path d="M71.4286 0H8.57143C4 0 0 4 0 8.57143V82.8571C0 87.4286 4 91.4286 8.57143 91.4286H71.4286C76 91.4286 80 87.4286 80 82.8571V8.57143C80 4 76 0 71.4286 0ZM22.8571 77.7143C22.8571 78.8571 21.7143 80 20.5714 80H13.7143C12.5714 80 11.4286 78.8571 11.4286 77.7143V70.8571C11.4286 69.7143 12.5714 68.5714 13.7143 68.5714H20.5714C21.7143 68.5714 22.8571 69.7143 22.8571 70.8571V77.7143V77.7143ZM22.8571 54.8571C22.8571 56 21.7143 57.1429 20.5714 57.1429H13.7143C12.5714 57.1429 11.4286 56 11.4286 54.8571V48C11.4286 46.8571 12.5714 45.7143 13.7143 45.7143H20.5714C21.7143 45.7143 22.8571 46.8571 22.8571 48V54.8571V54.8571ZM45.7143 77.7143C45.7143 78.8571 44.5714 80 43.4286 80H36.5714C35.4286 80 34.2857 78.8571 34.2857 77.7143V70.8571C34.2857 69.7143 35.4286 68.5714 36.5714 68.5714H43.4286C44.5714 68.5714 45.7143 69.7143 45.7143 70.8571V77.7143ZM45.7143 54.8571C45.7143 56 44.5714 57.1429 43.4286 57.1429H36.5714C35.4286 57.1429 34.2857 56 34.2857 54.8571V48C34.2857 46.8571 35.4286 45.7143 36.5714 45.7143H43.4286C44.5714 45.7143 45.7143 46.8571 45.7143 48V54.8571ZM68.5714 77.7143C68.5714 78.8571 67.4286 80 66.2857 80H59.4286C58.2857 80 57.1429 78.8571 57.1429 77.7143V48C57.1429 46.8571 58.2857 45.7143 59.4286 45.7143H66.2857C67.4286 45.7143 68.5714 46.8571 68.5714 48V77.7143V77.7143ZM68.5714 32C68.5714 33.1429 67.4286 34.2857 66.2857 34.2857H13.7143C12.5714 34.2857 11.4286 33.1429 11.4286 32V13.7143C11.4286 12.5714 12.5714 11.4286 13.7143 11.4286H66.2857C67.4286 11.4286 68.5714 12.5714 68.5714 13.7143V32Z" fill="#29A93F"/>
</g>
<defs>
<clipPath id="clip0">
<rect width="80" height="91.4286" fill="white"/>
</clipPath>
</defs>
</svg>
