<svg width="80" height="64" viewBox="0 0 80 64" fill="none" xmlns="http://www.w3.org/2000/svg">
<path d="M76 4H4C1.79125 4 0 5.79125 0 8V56C0 58.2088 1.79125 60 4 60H76C78.2088 60 80 58.2088 80 56V8C80 5.79125 78.2088 4 76 4ZM22 40.985V43C22 43.5525 21.5525 44 21 44H19C18.4475 44 18 43.5525 18 43V40.9637C16.5888 40.8912 15.2162 40.3987 14.0787 39.545C13.5912 39.1787 13.5662 38.4488 14.0075 38.0275L15.4762 36.6263C15.8225 36.2963 16.3375 36.2812 16.7425 36.535C17.2263 36.8375 17.775 37 18.345 37H21.8587C22.6712 37 23.3337 36.26 23.3337 35.3512C23.3337 34.6075 22.8825 33.9525 22.2375 33.76L16.6125 32.0725C14.2887 31.375 12.665 29.145 12.665 26.6488C12.665 23.5838 15.0463 21.0937 17.9988 21.015V19C17.9988 18.4475 18.4463 18 18.9988 18H20.9988C21.5513 18 21.9988 18.4475 21.9988 19V21.0362C23.41 21.1087 24.7825 21.6 25.92 22.455C26.4075 22.8212 26.4325 23.5512 25.9912 23.9725L24.5225 25.3738C24.1762 25.7038 23.6613 25.7188 23.2563 25.465C22.7725 25.1613 22.2237 25 21.6537 25H18.14C17.3275 25 16.665 25.74 16.665 26.6488C16.665 27.3925 17.1162 28.0475 17.7612 28.24L23.3862 29.9275C25.71 30.625 27.3337 32.855 27.3337 35.3512C27.3337 38.4175 24.9525 40.9063 22 40.985V40.985ZM52 39C52 39.5525 51.5525 40 51 40H37C36.4475 40 36 39.5525 36 39V37C36 36.4475 36.4475 36 37 36H51C51.5525 36 52 36.4475 52 37V39ZM72 39C72 39.5525 71.5525 40 71 40H61C60.4475 40 60 39.5525 60 39V37C60 36.4475 60.4475 36 61 36H71C71.5525 36 72 36.4475 72 37V39ZM72 27C72 27.5525 71.5525 28 71 28H37C36.4475 28 36 27.5525 36 27V25C36 24.4475 36.4475 24 37 24H71C71.5525 24 72 24.4475 72 25V27Z" fill="#29A93F"/>
</svg>
