<svg width="80" height="80" viewBox="0 0 80 80" fill="none" xmlns="http://www.w3.org/2000/svg">
<g clip-path="url(#clip0)">
<path d="M71.6597 39.9871L78.8448 32.955C80.9867 30.9274 79.988 27.324 77.1786 26.6521L67.3895 24.1536L70.1491 14.4638C70.9289 11.6766 68.3008 9.04771 65.5145 9.82771L55.828 12.5882L53.3305 2.79583C52.6695 0.0303625 49.0258 -0.981044 47.0297 1.12896L40 8.36989L32.9705 1.12911C30.997 -0.956981 27.3381 -0.00120026 26.6697 2.79599L24.1722 12.5883L14.4855 9.82786C11.6984 9.04755 9.07125 11.6774 9.85093 14.464L12.6105 24.1538L2.8214 26.6522C0.0107759 27.3243 -0.985942 30.9283 1.155 32.955L8.34015 39.9871L1.155 47.019C-0.98688 49.0466 0.01187 52.6501 2.82124 53.3219L12.6103 55.8204L9.85078 65.5102C9.07093 68.2974 11.6991 70.9263 14.4853 70.1463L24.1719 67.3858L26.6694 77.1782C27.363 80.0805 30.9969 80.931 32.9702 78.8451L40 71.6574L47.0295 78.8451C48.9827 80.9526 52.6525 80.0147 53.3303 77.1782L55.8278 67.3858L65.5144 70.1463C68.3012 70.9266 70.9286 68.2968 70.1489 65.5102L67.3894 55.8204L77.1784 53.3219C79.9889 52.6497 80.9856 49.0458 78.8447 47.019L71.6597 39.9871V39.9871Z" fill="#29A93F"/>
</g>
<defs>
<clipPath id="clip0">
<rect width="80" height="80" fill="white"/>
</clipPath>
</defs>
</svg>
