<svg width="96" height="90" viewBox="0 0 96 90" fill="none" xmlns="http://www.w3.org/2000/svg">
<g clip-path="url(#clip0)">
<path d="M92.7752 50.6255H51.0641L78.8428 78.4043C79.9045 79.466 81.6518 79.5521 82.7434 78.5238C89.5461 72.1148 94.2254 63.4752 95.5983 53.7632C95.8338 52.1004 94.4539 50.6255 92.7752 50.6255V50.6255ZM89.9926 39.2349C88.5442 18.2361 71.7641 1.45601 50.7653 0.00757697C49.1622 -0.103165 47.8122 1.24859 47.8122 2.85523V42.188H87.1467C88.7534 42.188 90.1034 40.838 89.9926 39.2349ZM39.3747 50.6255V8.91441C39.3747 7.2357 37.8998 5.85582 36.2387 6.09137C15.2909 9.05152 -0.721051 27.3521 0.0242611 49.2843C0.790667 71.8089 20.1846 90.28 42.7198 89.997C51.5791 89.8863 59.7653 87.0316 66.4959 82.2574C67.8846 81.273 67.976 79.2287 66.7719 78.0246L39.3747 50.6255Z" fill="#29A93F"/>
</g>
<defs>
<clipPath id="clip0">
<rect width="95.625" height="90" fill="white"/>
</clipPath>
</defs>
</svg>
