<svg width="80" height="80" viewBox="0 0 80 80" fill="none" xmlns="http://www.w3.org/2000/svg">
<path d="M78.125 60C79.1562 60 80 60.8438 80 61.875V68.125C80 69.1562 79.1562 70 78.125 70H1.875C0.84375 70 0 69.1562 0 68.125V11.875C0 10.8438 0.84375 10 1.875 10H8.125C9.15625 10 10 10.8438 10 11.875V60H78.125ZM58.2344 24.9219L45 33.75L31.6719 15.9844C30.875 14.9219 29.25 15 28.5625 16.1406L15 38.75V55H75L60.9531 25.6562C60.4531 24.6406 59.1719 24.2969 58.2344 24.9219V24.9219Z" fill="#29A93F"/>
</svg>
