<svg width="113" height="90" viewBox="0 0 113 90" fill="none" xmlns="http://www.w3.org/2000/svg">
<g clip-path="url(#clip0)">
<path d="M106.875 11.25H5.625C2.51895 11.25 0 13.7689 0 16.875V73.125C0 76.2311 2.51895 78.75 5.625 78.75H106.875C109.981 78.75 112.5 76.2311 112.5 73.125V16.875C112.5 13.7689 109.981 11.25 106.875 11.25ZM8.4375 70.3125V59.0625C14.6514 59.0625 19.6875 64.0986 19.6875 70.3125H8.4375ZM8.4375 30.9375V19.6875H19.6875C19.6875 25.9014 14.6514 30.9375 8.4375 30.9375ZM56.25 61.875C48.4822 61.875 42.1875 54.3182 42.1875 45C42.1875 35.6801 48.484 28.125 56.25 28.125C64.016 28.125 70.3125 35.6801 70.3125 45C70.3125 54.3217 64.0143 61.875 56.25 61.875ZM104.062 70.3125H92.8125C92.8125 64.0986 97.8486 59.0625 104.062 59.0625V70.3125ZM104.062 30.9375C97.8486 30.9375 92.8125 25.9014 92.8125 19.6875H104.062V30.9375Z" fill="#29A93F"/>
</g>
<defs>
<clipPath id="clip0">
<rect width="112.5" height="90" fill="white"/>
</clipPath>
</defs>
</svg>
