<svg width="80" height="80" viewBox="0 0 80 80" fill="none" xmlns="http://www.w3.org/2000/svg">
<path d="M58.0781 37.1875L30.5781 20.4688C28.1094 19.0937 25 20.8594 25 23.75V56.25C25 59.125 28.0937 60.9063 30.5781 59.5312L58.0781 43.75C60.6406 42.3281 60.6406 38.625 58.0781 37.1875ZM78.75 40C78.75 18.5938 61.4062 1.25 40 1.25C18.5938 1.25 1.25 18.5938 1.25 40C1.25 61.4062 18.5938 78.75 40 78.75C61.4062 78.75 78.75 61.4062 78.75 40ZM8.75 40C8.75 22.7344 22.7344 8.75 40 8.75C57.2656 8.75 71.25 22.7344 71.25 40C71.25 57.2656 57.2656 71.25 40 71.25C22.7344 71.25 8.75 57.2656 8.75 40Z" fill="#29A93F"/>
</svg>
