<svg width="68" height="90" viewBox="0 0 68 90" fill="none" xmlns="http://www.w3.org/2000/svg">
<path d="M35.5115 0C21.4808 0 12.3931 5.74857 5.25832 16.0007C3.96404 17.8604 4.36307 20.4103 6.16851 21.7793L13.7514 27.5289C15.5747 28.9114 18.1691 28.5882 19.5966 26.7998C23.9998 21.2836 27.266 18.1076 34.1437 18.1076C39.5515 18.1076 46.2403 21.5879 46.2403 26.8318C46.2403 30.796 42.9678 32.8319 37.6283 35.8255C31.4016 39.3165 23.1616 43.6611 23.1616 54.5295V56.25C23.1616 58.58 25.0504 60.4688 27.3804 60.4688H40.1194C42.4494 60.4688 44.3382 58.58 44.3382 56.25V55.2352C44.3382 47.7012 66.3579 47.3875 66.3579 27C66.3581 11.6466 50.432 0 35.5115 0ZM33.75 65.6471C27.0359 65.6471 21.5735 71.1095 21.5735 77.8236C21.5735 84.5376 27.0359 90 33.75 90C40.4641 90 45.9265 84.5376 45.9265 77.8235C45.9265 71.1093 40.4641 65.6471 33.75 65.6471Z" fill="#29A93F"/>
</svg>
